<svg xmlns="http://www.w3.org/2000/svg" viewBox="0 0 240 160" width="240" height="160">
  <defs>
    <linearGradient id="grad1" x1="0%" y1="0%" x2="0%" y2="100%">
      <stop offset="0%" style="stop-color:#7c4dff;stop-opacity:1" />
      <stop offset="100%" style="stop-color:#c084fc;stop-opacity:1" />
    </linearGradient>
  </defs>
  <!-- Stars -->
  <circle cx="30" cy="30" r="2" fill="#ffd700" opacity="0.8"/>
  <circle cx="200" cy="25" r="2.5" fill="#ffd700" opacity="0.6"/>
  <circle cx="50" cy="50" r="1.5" fill="#ffd700" opacity="0.5"/>
  <circle cx="210" cy="55" r="2" fill="#ffd700" opacity="0.7"/>
  <circle cx="25" cy="80" r="1.5" fill="#ffd700" opacity="0.4"/>
  <!-- Lightbulb base -->
  <ellipse cx="120" cy="115" rx="25" ry="12" fill="#444466"/>
  <rect x="110" y="105" width="20" height="12" rx="3" fill="#555577"/>
  <!-- Lightbulb glass -->
  <path d="M95 70 Q95 30 120 30 Q145 30 145 70 Q145 95 135 105 L105 105 Q95 95 95 70Z" fill="url(#grad1)" opacity="0.9"/>
  <!-- Filament -->
  <path d="M112 95 L112 75 L120 65 L128 75 L128 95" fill="none" stroke="#ffd700" stroke-width="2.5" stroke-linecap="round" stroke-linejoin="round"/>
  <!-- Glow rays -->
  <line x1="120" y1="15" x2="120" y2="5" stroke="#ffd700" stroke-width="2.5" stroke-linecap="round"/>
  <line x1="85" y1="30" x2="78" y2="23" stroke="#ffd700" stroke-width="2" stroke-linecap="round"/>
  <line x1="155" y1="30" x2="162" y2="23" stroke="#ffd700" stroke-width="2" stroke-linecap="round"/>
  <line x1="75" y1="65" x2="65" y2="65" stroke="#ffd700" stroke-width="2" stroke-linecap="round"/>
  <line x1="165" y1="65" x2="175" y2="65" stroke="#ffd700" stroke-width="2" stroke-linecap="round"/>
  <!-- Sparkle accents -->
  <path d="M70 40 L72 45 L77 47 L72 49 L70 54 L68 49 L63 47 L68 45Z" fill="#ffd700" opacity="0.7"/>
  <path d="M170 70 L171.5 73 L174.5 74 L171.5 75 L170 78 L168.5 75 L165.5 74 L168.5 73Z" fill="#ffd700" opacity="0.6"/>
</svg>